<svg viewBox="0 0 423 40" xmlns="http://www.w3.org/2000/svg" xml:space="preserve" style="fill-rule:evenodd;clip-rule:evenodd;stroke-linejoin:round;stroke-miterlimit:2"><g id="ArtBoard1" transform="scale(.5632 .02999)"><path style="fill:none" d="M0 0h750v1334H0z"/><clipPath id="_clip1"><path d="M0 0h750v1334H0z"/></clipPath><g clip-path="url('#_clip1')"><path d="M.069 0v-.7h.084v.289a.176.176 0 0 1 .071-.072.203.203 0 0 1 .1-.025c.057 0 .103.018.138.053.035.036.052.091.052.165V0H.431v-.281c0-.051-.01-.09-.031-.116C.379-.423.347-.436.306-.436a.144.144 0 0 0-.109.046.189.189 0 0 0-.044.133V0H.069Z" style="fill:#fff;fill-rule:nonzero" transform="matrix(60.6508 0 0 1139.18597 -4.185 962.364)"/><path d="M.251.012A.204.204 0 0 1 .15-.012a.154.154 0 0 1-.068-.072.273.273 0 0 1-.024-.122v-.29h.084v.281c0 .051.011.09.032.116.021.026.053.039.096.039a.14.14 0 0 0 .107-.047c.028-.03.042-.075.042-.132v-.257h.084V0H.427L.422-.089a.182.182 0 0 1-.069.074.194.194 0 0 1-.102.027Z" style="fill:#fff;fill-rule:nonzero" transform="matrix(60.6508 0 0 1139.18597 30.507 962.364)"/><path d="M.069 0v-.496h.076l.006.072a.166.166 0 0 1 .064-.062.182.182 0 0 1 .09-.022c.039 0 .073.008.102.024.028.016.05.04.065.073a.197.197 0 0 1 .17-.097c.04 0 .075.008.104.023.029.016.051.04.067.072a.28.28 0 0 1 .024.123V0H.754v-.281c0-.051-.01-.09-.031-.116a.107.107 0 0 0-.089-.039.123.123 0 0 0-.099.046c-.027.031-.04.076-.04.133V0H.411v-.281c0-.051-.01-.09-.031-.116a.107.107 0 0 0-.089-.039.123.123 0 0 0-.098.046c-.027.031-.04.076-.04.133V0H.069Z" style="fill:#fff;fill-rule:nonzero" transform="matrix(60.6508 0 0 1139.18597 65.2 962.364)"/><path d="M.234.012a.252.252 0 0 1-.093-.017.143.143 0 0 1-.091-.136c0-.039.01-.07.03-.093a.177.177 0 0 1 .08-.05.362.362 0 0 1 .106-.015H.4a.17.17 0 0 0-.017-.082.105.105 0 0 0-.046-.043.14.14 0 0 0-.062-.013.15.15 0 0 0-.084.023.105.105 0 0 0-.045.073H.06a.157.157 0 0 1 .036-.091.199.199 0 0 1 .079-.057.278.278 0 0 1 .1-.019c.05 0 .09.009.121.027a.165.165 0 0 1 .067.074.245.245 0 0 1 .021.102v.152c0 .025.003.043.009.056.006.013.021.02.046.023V0a.189.189 0 0 1-.06-.009.096.096 0 0 1-.045-.028.1.1 0 0 1-.027-.051.22.22 0 0 1-.068.071.188.188 0 0 1-.105.029Zm.013-.071a.138.138 0 0 0 .084-.026.152.152 0 0 0 .052-.065A.216.216 0 0 0 .4-.233v-.001H.273a.284.284 0 0 0-.066.007.101.101 0 0 0-.05.027c-.013.013-.019.032-.019.055 0 .03.011.052.032.065a.136.136 0 0 0 .077.021Z" style="fill:#fff;fill-rule:nonzero" transform="matrix(60.6508 0 0 1139.18597 119.482 962.364)"/><path d="M.069 0v-.496h.076l.005.089a.182.182 0 0 1 .069-.074.194.194 0 0 1 .102-.027.19.19 0 0 1 .141.053c.035.036.052.091.052.165V0H.43v-.281a.182.182 0 0 0-.032-.116C.377-.423.345-.436.302-.436a.136.136 0 0 0-.106.046c-.029.031-.043.076-.043.133V0H.069Z" style="fill:#fff;fill-rule:nonzero" transform="matrix(60.6508 0 0 1139.18597 154.114 962.364)"/><path d="M.519.212A.495.495 0 0 1 .34.181a.392.392 0 0 1-.235-.224.45.45 0 0 1-.033-.175.418.418 0 0 1 .274-.405.492.492 0 0 1 .177-.031c.061 0 .118.009.171.028.053.019.1.046.141.081a.38.38 0 0 1 .129.297.366.366 0 0 1-.02.121.214.214 0 0 1-.062.091.156.156 0 0 1-.105.034.129.129 0 0 1-.122-.078.326.326 0 0 1-.061.055A.167.167 0 0 1 .498 0a.207.207 0 0 1-.11-.029.196.196 0 0 1-.073-.078.226.226 0 0 1-.027-.112.23.23 0 0 1 .027-.112.19.19 0 0 1 .074-.077.216.216 0 0 1 .11-.027.2.2 0 0 1 .082.016.168.168 0 0 1 .063.049v-.055h.08v.278a.08.08 0 0 0 .018.053c.011.014.028.021.049.021A.077.077 0 0 0 .854-.1a.158.158 0 0 0 .033-.066.343.343 0 0 0-.038-.264.328.328 0 0 0-.132-.121.432.432 0 0 0-.194-.042.386.386 0 0 0-.273.105.36.36 0 0 0-.11.27.372.372 0 0 0 .111.268.365.365 0 0 0 .121.074.413.413 0 0 0 .147.026.504.504 0 0 0 .096-.009.347.347 0 0 0 .086-.028l.02.06-.04.015a.554.554 0 0 1-.162.024ZM.51-.072a.129.129 0 0 0 .104-.043.152.152 0 0 0 .036-.103.167.167 0 0 0-.017-.076.13.13 0 0 0-.123-.07.13.13 0 0 0-.101.041.152.152 0 0 0-.038.105c0 .045.013.08.039.106.026.027.059.04.1.04Z" style="fill:#fff;fill-rule:nonzero" transform="matrix(60.6508 0 0 1139.18597 188.867 962.364)"/><path d="M.234.012a.252.252 0 0 1-.093-.017.143.143 0 0 1-.091-.136c0-.039.01-.07.03-.093a.177.177 0 0 1 .08-.05.362.362 0 0 1 .106-.015H.4a.17.17 0 0 0-.017-.082.105.105 0 0 0-.046-.043.14.14 0 0 0-.062-.013.15.15 0 0 0-.084.023.105.105 0 0 0-.045.073H.06a.157.157 0 0 1 .036-.091.199.199 0 0 1 .079-.057.278.278 0 0 1 .1-.019c.05 0 .09.009.121.027a.165.165 0 0 1 .067.074.245.245 0 0 1 .021.102v.152c0 .025.003.043.009.056.006.013.021.02.046.023V0a.189.189 0 0 1-.06-.009.096.096 0 0 1-.045-.028.1.1 0 0 1-.027-.051.22.22 0 0 1-.068.071.188.188 0 0 1-.105.029Zm.013-.071a.138.138 0 0 0 .084-.026.152.152 0 0 0 .052-.065A.216.216 0 0 0 .4-.233v-.001H.273a.284.284 0 0 0-.066.007.101.101 0 0 0-.05.027c-.013.013-.019.032-.019.055 0 .03.011.052.032.065a.136.136 0 0 0 .077.021Z" style="fill:#fff;fill-rule:nonzero" transform="matrix(60.6508 0 0 1139.18597 251.58 962.364)"/><path d="M.12-.606a.055.055 0 0 1-.041-.017.055.055 0 0 1-.017-.041c0-.016.006-.029.017-.04A.054.054 0 0 1 .12-.72c.016 0 .03.005.041.016a.054.054 0 0 1 .017.04c0 .017-.006.03-.017.041a.057.057 0 0 1-.041.017ZM.078 0v-.496h.084V0H.078Z" style="fill:#fff;fill-rule:nonzero" transform="matrix(60.6508 0 0 1139.18597 286.211 962.364)"/><path style="fill:#fff;fill-rule:nonzero" d="M.059-.326h.396v.071H.059z" transform="matrix(60.6508 0 0 1139.18597 300.707 962.364)"/><path d="M.212 0 .024-.496h.088l.149.415.15-.415h.086L.309 0H.212Z" style="fill:#fff;fill-rule:nonzero" transform="matrix(60.6508 0 0 1139.18597 331.82 962.364)"/><path d="M.259.012a.257.257 0 0 1-.106-.021.175.175 0 0 1-.075-.058.177.177 0 0 1-.036-.088h.086a.113.113 0 0 0 .042.067.133.133 0 0 0 .09.029c.035 0 .061-.008.078-.023a.067.067 0 0 0 .025-.053.07.07 0 0 0-.014-.046.096.096 0 0 0-.042-.025C.288-.211.266-.217.239-.222a.484.484 0 0 1-.082-.025.17.17 0 0 1-.066-.042.1.1 0 0 1-.026-.071c0-.029.007-.055.022-.077A.155.155 0 0 1 .15-.489a.215.215 0 0 1 .095-.019c.053 0 .096.013.13.039a.16.16 0 0 1 .058.113H.35a.09.09 0 0 0-.032-.06.12.12 0 0 0-.074-.021c-.03 0-.053.006-.069.019a.059.059 0 0 0-.025.05c0 .013.005.025.014.034a.12.12 0 0 0 .041.024.358.358 0 0 0 .062.018.662.662 0 0 1 .091.025c.027.01.049.024.066.043.017.019.025.047.025.082a.135.135 0 0 1-.022.079.163.163 0 0 1-.066.055.247.247 0 0 1-.102.02Z" style="fill:#fff;fill-rule:nonzero" transform="matrix(60.6508 0 0 1139.18597 361.843 962.364)"/><path style="fill:#fff;fill-rule:nonzero" d="M.059-.326h.396v.071H.059z" transform="matrix(60.6508 0 0 1139.18597 392.168 962.364)"/><path d="M.069 0v-.7h.084v.289a.176.176 0 0 1 .071-.072.203.203 0 0 1 .1-.025c.057 0 .103.018.138.053.035.036.052.091.052.165V0H.431v-.281c0-.051-.01-.09-.031-.116C.379-.423.347-.436.306-.436a.144.144 0 0 0-.109.046.189.189 0 0 0-.044.133V0H.069Z" style="fill:#fff;fill-rule:nonzero" transform="matrix(60.6508 0 0 1139.18597 423.282 962.364)"/><path d="M.251.012A.204.204 0 0 1 .15-.012a.154.154 0 0 1-.068-.072.273.273 0 0 1-.024-.122v-.29h.084v.281c0 .051.011.09.032.116.021.026.053.039.096.039a.14.14 0 0 0 .107-.047c.028-.03.042-.075.042-.132v-.257h.084V0H.427L.422-.089a.182.182 0 0 1-.069.074.194.194 0 0 1-.102.027Z" style="fill:#fff;fill-rule:nonzero" transform="matrix(60.6508 0 0 1139.18597 457.974 962.364)"/><path d="M.069 0v-.496h.076l.006.072a.166.166 0 0 1 .064-.062.182.182 0 0 1 .09-.022c.039 0 .073.008.102.024.028.016.05.04.065.073a.197.197 0 0 1 .17-.097c.04 0 .075.008.104.023.029.016.051.04.067.072a.28.28 0 0 1 .024.123V0H.754v-.281c0-.051-.01-.09-.031-.116a.107.107 0 0 0-.089-.039.123.123 0 0 0-.099.046c-.027.031-.04.076-.04.133V0H.411v-.281c0-.051-.01-.09-.031-.116a.107.107 0 0 0-.089-.039.123.123 0 0 0-.098.046c-.027.031-.04.076-.04.133V0H.069Z" style="fill:#fff;fill-rule:nonzero" transform="matrix(60.6508 0 0 1139.18597 492.665 962.364)"/><path d="M.234.012a.252.252 0 0 1-.093-.017.143.143 0 0 1-.091-.136c0-.039.01-.07.03-.093a.177.177 0 0 1 .08-.05.362.362 0 0 1 .106-.015H.4a.17.17 0 0 0-.017-.082.105.105 0 0 0-.046-.043.14.14 0 0 0-.062-.013.15.15 0 0 0-.084.023.105.105 0 0 0-.045.073H.06a.157.157 0 0 1 .036-.091.199.199 0 0 1 .079-.057.278.278 0 0 1 .1-.019c.05 0 .09.009.121.027a.165.165 0 0 1 .067.074.245.245 0 0 1 .021.102v.152c0 .025.003.043.009.056.006.013.021.02.046.023V0a.189.189 0 0 1-.06-.009.096.096 0 0 1-.045-.028.1.1 0 0 1-.027-.051.22.22 0 0 1-.068.071.188.188 0 0 1-.105.029Zm.013-.071a.138.138 0 0 0 .084-.026.152.152 0 0 0 .052-.065A.216.216 0 0 0 .4-.233v-.001H.273a.284.284 0 0 0-.066.007.101.101 0 0 0-.05.027c-.013.013-.019.032-.019.055 0 .03.011.052.032.065a.136.136 0 0 0 .077.021Z" style="fill:#fff;fill-rule:nonzero" transform="matrix(60.6508 0 0 1139.18597 546.948 962.364)"/><path d="M.069 0v-.496h.076l.005.089a.182.182 0 0 1 .069-.074.194.194 0 0 1 .102-.027.19.19 0 0 1 .141.053c.035.036.052.091.052.165V0H.43v-.281a.182.182 0 0 0-.032-.116C.377-.423.345-.436.302-.436a.136.136 0 0 0-.106.046c-.029.031-.043.076-.043.133V0H.069Z" style="fill:#fff;fill-rule:nonzero" transform="matrix(60.6508 0 0 1139.18597 581.58 962.364)"/><path d="M.098.005C.081.005.067 0 .057-.012a.057.057 0 0 1 .041-.097.06.06 0 0 1 .041.016.056.056 0 0 1 .016.041.054.054 0 0 1-.016.04.053.053 0 0 1-.041.017Z" style="fill:#fff;fill-rule:nonzero" transform="matrix(60.6508 0 0 1139.18597 616.334 962.364)"/><path d="M.297.012A.251.251 0 0 1 .171-.02a.232.232 0 0 1-.09-.091.272.272 0 0 1-.033-.137c0-.051.011-.097.032-.136a.233.233 0 0 1 .088-.091.248.248 0 0 1 .129-.033c.059 0 .108.015.149.046.04.031.065.072.076.123H.436a.112.112 0 0 0-.049-.072.161.161 0 0 0-.091-.025.151.151 0 0 0-.089.026.155.155 0 0 0-.054.069.224.224 0 0 0-.019.093.22.22 0 0 0 .021.098.159.159 0 0 0 .058.067.147.147 0 0 0 .083.024.162.162 0 0 0 .091-.026.11.11 0 0 0 .049-.072h.086a.199.199 0 0 1-.119.147.242.242 0 0 1-.106.022Z" style="fill:#fff;fill-rule:nonzero" transform="matrix(60.6508 0 0 1139.18597 628.161 962.364)"/><path d="M.298.012a.255.255 0 0 1-.125-.031.229.229 0 0 1-.091-.089.273.273 0 0 1-.034-.141c0-.053.011-.098.034-.137a.225.225 0 0 1 .091-.09.262.262 0 0 1 .129-.032c.046 0 .088.01.127.03.038.02.069.049.092.088a.273.273 0 0 1 .035.141.27.27 0 0 1-.033.135.244.244 0 0 1-.091.092.26.26 0 0 1-.134.034Zm0-.073a.164.164 0 0 0 .088-.024.162.162 0 0 0 .062-.065.207.207 0 0 0 .023-.099.226.226 0 0 0-.02-.096.155.155 0 0 0-.15-.09.158.158 0 0 0-.092.025.162.162 0 0 0-.057.067.22.22 0 0 0-.019.094c0 .044.008.08.024.107a.151.151 0 0 0 .062.061c.025.013.052.02.079.02Z" style="fill:#fff;fill-rule:nonzero" transform="matrix(60.6508 0 0 1139.18597 662.731 962.364)"/><path d="M.069 0v-.496h.076l.006.072a.166.166 0 0 1 .064-.062.182.182 0 0 1 .09-.022c.039 0 .073.008.102.024.028.016.05.04.065.073a.197.197 0 0 1 .17-.097c.04 0 .075.008.104.023.029.016.051.04.067.072a.28.28 0 0 1 .024.123V0H.754v-.281c0-.051-.01-.09-.031-.116a.107.107 0 0 0-.089-.039.123.123 0 0 0-.099.046c-.027.031-.04.076-.04.133V0H.411v-.281c0-.051-.01-.09-.031-.116a.107.107 0 0 0-.089-.039.123.123 0 0 0-.098.046c-.027.031-.04.076-.04.133V0H.069Z" style="fill:#fff;fill-rule:nonzero" transform="matrix(60.6508 0 0 1139.18597 699.365 962.364)"/></g></g></svg>