<svg viewBox="0 0 154 50" xmlns="http://www.w3.org/2000/svg" xml:space="preserve" style="fill-rule:evenodd;clip-rule:evenodd;stroke-linejoin:round;stroke-miterlimit:2"><path d="m.023 0 .256-.7h.126l.256.7h-.12L.483-.166H.2L.141 0H.023Zm.21-.257h.218l-.11-.31-.108.31Z" style="fill:#fff;fill-rule:nonzero" transform="translate(-.659 20.05) scale(28.64388)"/><path style="fill:#fff;fill-rule:nonzero" d="M.067-.7h.114V0H.067z" transform="translate(33.72 20.05) scale(28.64388)"/><path style="fill:#fff;fill-rule:nonzero" d="M.056-.337h.348v.095H.056z" transform="translate(55.61 20.05) scale(28.64388)"/><path d="M.194 0 .007-.496h.12l.135.392.135-.392h.119L.329 0H.194Z" style="fill:#5d55fa;fill-rule:nonzero" transform="translate(83.571 20.05) scale(28.64388)"/><path d="M.252.012a.267.267 0 0 1-.106-.021.2.2 0 0 1-.079-.058.162.162 0 0 1-.034-.089h.114A.085.085 0 0 0 .181-.1a.11.11 0 0 0 .07.022.11.11 0 0 0 .062-.016.05.05 0 0 0 .024-.044.049.049 0 0 0-.017-.038.137.137 0 0 0-.042-.02.442.442 0 0 0-.052-.014.566.566 0 0 1-.088-.027.172.172 0 0 1-.065-.045.11.11 0 0 1-.025-.076c0-.031.009-.058.026-.08A.158.158 0 0 1 .143-.49a.255.255 0 0 1 .098-.018c.055 0 .1.014.136.041a.154.154 0 0 1 .061.12H.33a.07.07 0 0 0-.029-.052.102.102 0 0 0-.063-.018.11.11 0 0 0-.057.013c-.015.009-.022.023-.022.042a.04.04 0 0 0 .016.033.138.138 0 0 0 .042.022l.051.014a.613.613 0 0 1 .091.028.15.15 0 0 1 .063.045.126.126 0 0 1 .025.079.134.134 0 0 1-.026.082.172.172 0 0 1-.07.053.257.257 0 0 1-.099.018Z" style="fill:#5d55fa;fill-rule:nonzero" transform="translate(112.736 20.05) scale(28.64388)"/><path style="fill:#fff;fill-rule:nonzero" d="M.056-.337h.348v.095H.056z" transform="translate(141.357 20.05) scale(28.64388)"/><path d="M.053 0v-.7h.113v.271a.156.156 0 0 1 .07-.059.223.223 0 0 1 .091-.02c.057 0 .104.018.14.055.036.037.054.091.054.162V0H.409v-.277a.15.15 0 0 0-.03-.099C.36-.4.331-.412.293-.412A.118.118 0 0 0 .2-.373a.148.148 0 0 0-.034.104V0H.053Z" style="fill:#fff;fill-rule:nonzero" transform="translate(-.659 48.695) scale(28.64388)"/><path d="M.243.012a.208.208 0 0 1-.106-.026.168.168 0 0 1-.069-.075.252.252 0 0 1-.024-.114v-.293h.113v.277c0 .041.01.074.029.098.02.025.049.037.088.037.039 0 .07-.013.092-.038a.154.154 0 0 0 .033-.105v-.269h.113V0h-.11L.4-.068a.174.174 0 0 1-.067.059.198.198 0 0 1-.09.021Z" style="fill:#fff;fill-rule:nonzero" transform="translate(15.525 48.695) scale(28.64388)"/><path d="M.053 0v-.496h.11l.002.062a.154.154 0 0 1 .064-.055.217.217 0 0 1 .188.005.16.16 0 0 1 .072.073.186.186 0 0 1 .168-.097c.039 0 .073.008.104.024.03.015.054.039.071.071a.255.255 0 0 1 .026.121V0H.746v-.277a.15.15 0 0 0-.029-.098C.699-.398.67-.41.633-.41a.11.11 0 0 0-.089.038.155.155 0 0 0-.032.103V0H.4v-.277C.4-.32.39-.353.37-.375.351-.399.323-.41.286-.41a.119.119 0 0 0-.085.035c-.023.022-.035.058-.035.106V0H.053Z" style="fill:#fff;fill-rule:nonzero" transform="translate(31.709 48.695) scale(28.64388)"/><path d="M.209.012a.2.2 0 0 1-.085-.018.138.138 0 0 1-.087-.132.14.14 0 0 1 .028-.091.167.167 0 0 1 .076-.052.323.323 0 0 1 .106-.016h.124a.137.137 0 0 0-.013-.065A.088.088 0 0 0 .322-.4a.103.103 0 0 0-.054-.013.133.133 0 0 0-.07.018c-.02.012-.032.032-.037.059H.047a.161.161 0 0 1 .037-.092.19.19 0 0 1 .08-.059.266.266 0 0 1 .105-.021c.048 0 .088.009.12.027a.18.18 0 0 1 .072.073.237.237 0 0 1 .024.109v.151c.001.018.005.031.014.039.008.008.021.012.039.013V0a.253.253 0 0 1-.072-.009.122.122 0 0 1-.081-.074.188.188 0 0 1-.07.067.2.2 0 0 1-.106.028ZM.238-.08a.123.123 0 0 0 .069-.019.141.141 0 0 0 .047-.05.144.144 0 0 0 .017-.069v-.003H.255a.168.168 0 0 0-.05.007.083.083 0 0 0-.038.022.065.065 0 0 0-.014.043c0 .024.008.041.025.052a.108.108 0 0 0 .06.017Z" style="fill:#fff;fill-rule:nonzero" transform="translate(57.545 48.695) scale(28.64388)"/><path d="M.053 0v-.496h.11l.002.068a.159.159 0 0 1 .069-.059.21.21 0 0 1 .092-.021c.058 0 .105.018.141.055.036.037.054.091.054.162V0H.409v-.277a.15.15 0 0 0-.03-.099C.359-.4.33-.412.291-.412a.116.116 0 0 0-.092.039.153.153 0 0 0-.033.104V0H.053Z" style="fill:#fff;fill-rule:nonzero" transform="translate(73.586 48.695) scale(28.64388)"/><path d="M.108.01a.073.073 0 0 1-.075-.075c0-.021.007-.038.021-.053a.076.076 0 0 1 .054-.021.07.07 0 0 1 .052.021.071.071 0 0 1 .022.053.071.071 0 0 1-.022.053.067.067 0 0 1-.052.022Z" style="fill:#fff;fill-rule:nonzero" transform="translate(89.798 48.695) scale(28.64388)"/><path d="M.284.012a.248.248 0 0 1-.129-.033.23.23 0 0 1-.088-.092.278.278 0 0 1-.032-.135c0-.051.01-.095.031-.135a.248.248 0 0 1 .087-.092.252.252 0 0 1 .131-.033c.06 0 .11.015.151.045a.22.22 0 0 1 .082.13h-.12A.102.102 0 0 0 .358-.39a.121.121 0 0 0-.075-.022.117.117 0 0 0-.074.023.146.146 0 0 0-.044.059.248.248 0 0 0 .001.165.14.14 0 0 0 .044.059c.02.015.044.022.073.022a.121.121 0 0 0 .073-.021.1.1 0 0 0 .041-.058h.12a.233.233 0 0 1-.044.094.22.22 0 0 1-.081.06.267.267 0 0 1-.108.021Z" style="fill:#fff;fill-rule:nonzero" transform="translate(95.985 48.695) scale(28.64388)"/><path d="M.291.012A.27.27 0 0 1 .16-.02a.228.228 0 0 1-.091-.091.26.26 0 0 1-.034-.137c0-.054.012-.1.035-.139a.24.24 0 0 1 .094-.09.272.272 0 0 1 .131-.031c.049 0 .093.01.132.031.039.021.07.051.092.09a.268.268 0 0 1 .035.139.26.26 0 0 1-.034.134.235.235 0 0 1-.093.092.264.264 0 0 1-.136.034Zm.001-.098a.125.125 0 0 0 .075-.022.147.147 0 0 0 .052-.058.18.18 0 0 0 .019-.084.175.175 0 0 0-.019-.085.138.138 0 0 0-.052-.055.13.13 0 0 0-.074-.02.141.141 0 0 0-.077.021.136.136 0 0 0-.049.057.207.207 0 0 0-.017.084.18.18 0 0 0 .019.087.138.138 0 0 0 .123.075Z" style="fill:#fff;fill-rule:nonzero" transform="translate(111.825 48.695) scale(28.64388)"/><path d="M.053 0v-.496h.11l.002.062a.154.154 0 0 1 .064-.055.217.217 0 0 1 .188.005.16.16 0 0 1 .072.073.186.186 0 0 1 .168-.097c.039 0 .073.008.104.024.03.015.054.039.071.071a.255.255 0 0 1 .026.121V0H.746v-.277a.15.15 0 0 0-.029-.098C.699-.398.67-.41.633-.41a.11.11 0 0 0-.089.038.155.155 0 0 0-.032.103V0H.4v-.277C.4-.32.39-.353.37-.375.351-.399.323-.41.286-.41a.119.119 0 0 0-.085.035c-.023.022-.035.058-.035.106V0H.053Z" style="fill:#fff;fill-rule:nonzero" transform="translate(128.697 48.695) scale(28.64388)"/></svg>