<svg viewBox="0 0 156 45" xmlns="http://www.w3.org/2000/svg" xml:space="preserve" style="fill-rule:evenodd;clip-rule:evenodd;stroke-linecap:round;stroke-linejoin:round;stroke-miterlimit:1.5"><path d="m.03 0 .258-.7h.089l.257.7H.545L.481-.18H.183L.118 0H.03Zm.178-.248h.248L.332-.594l-.124.346Z" style="fill:#3ebd93;fill-rule:nonzero" transform="translate(61.264 35.675) scale(38.29447)"/><path style="fill:#3ebd93;fill-rule:nonzero" d="M.074-.7h.084V0H.074z" transform="translate(86.691 35.675) scale(38.29447)"/><path d="M1166.69 79.557v75.527c0 2.087-1.7 3.781-3.79 3.781H866.158a3.783 3.783 0 0 1-3.781-3.781V79.557a3.783 3.783 0 0 1 3.781-3.781H1162.9c2.09 0 3.79 1.694 3.79 3.781Z" style="fill:none;stroke:#3ebd93;stroke-width:6px" transform="matrix(.5 0 0 .5 -429.688 -36.388)"/></svg>