<svg viewBox="0 0 156 45" xmlns="http://www.w3.org/2000/svg" xml:space="preserve" style="fill-rule:evenodd;clip-rule:evenodd;stroke-linecap:round;stroke-linejoin:round;stroke-miterlimit:1.5"><path d="M.074 0v-.7h.084v.295h.363V-.7h.084V0H.521v-.336H.158V0H.074Z" style="fill:#e12d39;fill-rule:nonzero" transform="translate(10.275 35.446) scale(38.29447)"/><path d="M.327.012a.268.268 0 0 1-.149-.038.211.211 0 0 1-.083-.099.326.326 0 0 1-.027-.133V-.7h.084v.443c0 .068.016.117.049.148a.178.178 0 0 0 .128.046.174.174 0 0 0 .127-.046c.032-.031.048-.08.048-.148V-.7h.084v.442a.327.327 0 0 1-.023.129.22.22 0 0 1-.146.127.294.294 0 0 1-.092.014Z" style="fill:#e12d39;fill-rule:nonzero" transform="translate(36.277 35.446) scale(38.29447)"/><path d="M.074 0v-.7h.098l.242.486.24-.486h.099V0H.669v-.548L.445-.1H.382L.158-.547V0H.074Z" style="fill:#e12d39;fill-rule:nonzero" transform="translate(61.398 35.446) scale(38.29447)"/><path d="m.03 0 .258-.7h.089l.257.7H.545L.481-.18H.183L.118 0H.03Zm.178-.248h.248L.332-.594l-.124.346Z" style="fill:#e12d39;fill-rule:nonzero" transform="translate(93.068 35.446) scale(38.29447)"/><path d="M.074 0v-.7h.084l.373.561V-.7h.084V0H.531L.158-.561V0H.074Z" style="fill:#e12d39;fill-rule:nonzero" transform="translate(118.495 35.446) scale(38.29447)"/><path d="M1166.69 79.93v74.781a4.157 4.157 0 0 1-4.16 4.154H866.531a4.156 4.156 0 0 1-4.154-4.154V79.93a4.156 4.156 0 0 1 4.154-4.154h295.999c2.3 0 4.16 1.861 4.16 4.154Z" style="fill:none;stroke:#e12d39;stroke-width:6px" transform="matrix(.5 0 0 .5 -429.688 -36.388)"/></svg>